<?xml version="1.0" encoding="UTF-8" standalone="no"?>
<!DOCTYPE svg PUBLIC "-//W3C//DTD SVG 1.1//EN" "http://www.w3.org/Graphics/SVG/1.1/DTD/svg11.dtd">
<svg width="100%" height="100%" viewBox="0 0 2067 556" version="1.1"
    xmlns="http://www.w3.org/2000/svg" xmlns:xlink="http://www.w3.org/1999/xlink"
    xml:space="preserve" xmlns:serif="http://www.serif.com/"
    style="fill-rule:evenodd;clip-rule:evenodd;stroke-linejoin:round;stroke-miterlimit:2;">
    <g transform="matrix(1,0,0,1,-38.2363,-44.5998)">
        <g transform="matrix(4.16667,0,0,4.16667,1752.43,409.392)">
            <path d="M0,-66.129L-18.042,-66.129L-40.319,0L-24.269,0L-9.021,-47.824L6.227,0L22.29,0L0,-66.129Z" style="fill:white;fill-rule:nonzero;"/>
        </g>
        <g transform="matrix(4.16667,0,0,4.16667,691.223,409.392)">
            <path d="M0,-66.129L-18.042,-66.129L-40.319,0L-24.269,0L-9.021,-47.824L6.227,0L22.29,0L0,-66.129Z" style="fill:white;fill-rule:nonzero;"/>
        </g>
        <g transform="matrix(4.16667,0,0,4.16667,484.936,133.85)">
            <path d="M0,66.131L-16.239,66.131L-16.239,38.794L-40.508,38.794L-40.508,66.131L-56.838,66.131L-56.838,0L-40.508,0L-40.508,25.443L-16.239,25.443L-16.33,0L0,0L0,66.131Z" style="fill:white;fill-rule:nonzero;"/>
        </g>
        <g transform="matrix(4.16667,0,0,4.16667,798.101,272.184)">
            <path d="M0,-0.269C0,-19.757 13.082,-34.372 34.825,-34.372C50.072,-34.372 58.552,-28.056 64.146,-20.388L52.147,-11.637C48.989,-16.238 43.124,-19.936 34.825,-19.936C24.721,-19.936 16.33,-13.261 16.33,-0.269C16.33,12.723 24.721,19.489 34.825,19.489C43.396,19.489 49.079,16.151 53.23,10.196L64.417,18.947C59.365,27.157 50.703,34.103 34.825,34.103C12.992,34.103 0,19.217 0,-0.269" style="fill:white;fill-rule:nonzero;"/>
        </g>
        <g transform="matrix(4.16667,0,0,4.16667,1266.09,409.397)">
            <path d="M0,-66.131L17.502,-66.131L-3.519,-34.553L19.307,0L1.804,0L-20.028,-34.553L0,-66.131ZM-23.728,0L-38.162,0L-38.162,-66.131L-23.728,-66.131L-23.728,0Z" style="fill:white;fill-rule:nonzero;"/>
        </g>
        <g transform="matrix(4.16667,0,0,4.16667,1448.75,190.994)">
            <path d="M0,38.703L26.704,38.703L26.704,52.417L-15.517,52.417L-15.517,-13.714L0,-13.714L0,38.703Z" style="fill:white;fill-rule:nonzero;"/>
        </g>
        <g transform="matrix(4.16667,0,0,4.16667,1993.77,186.858)">
            <path d="M0,40.689C6.946,40.598 9.653,38.072 9.653,33.02C9.653,28.419 4.691,25.713 -0.994,25.622C-4.331,25.532 -7.76,25.532 -11.098,25.532L-11.098,40.778C-7.399,40.778 -3.7,40.778 0,40.689M-3.88,13.893C1.985,13.803 5.052,11.727 5.052,6.405C5.052,2.345 1.713,-0.09 -4.692,-0.361C-6.857,-0.452 -9.023,-0.452 -11.188,-0.361L-11.188,13.984C-9.023,13.984 -6.767,13.984 -3.88,13.893M-5.143,-12.722C14.975,-12.45 21.382,-4.871 21.382,4.15C21.382,11.548 18.043,16.329 11.637,18.495C20.388,20.3 25.802,25.713 25.802,35.185C25.802,46.643 19.577,53.228 0.721,53.409C-8.571,53.5 -18.134,53.5 -27.246,53.319L-27.337,-12.722C-20.119,-12.811 -12.541,-12.811 -5.143,-12.722" style="fill:white;fill-rule:nonzero;"/>
        </g>
        <g transform="matrix(4.16667,0,0,4.16667,153.229,46.1928)">
            <path d="M0,13.57L0,3.924L-1.685,5.258L-3.332,2.906L0.112,0L3.148,0L3.148,13.57L0,13.57Z" style="fill:rgb(89,180,116);fill-rule:nonzero;"/>
        </g>
        <g transform="matrix(4.16667,0,0,4.16667,362.425,471.333)">
            <path d="M0,30.43L0,8.799L-3.777,11.791L-7.472,6.518L0.25,0L7.058,0L7.058,30.43L0,30.43Z" style="fill:rgb(89,180,116);fill-rule:nonzero;"/>
        </g>
        <g transform="matrix(4.16667,0,0,4.16667,67.0798,312.112)">
            <path d="M0,24.395L0,7.054L-3.028,9.453L-5.99,5.225L0.201,0L5.658,0L5.658,24.395L0,24.395Z" style="fill:rgb(89,180,116);fill-rule:nonzero;"/>
        </g>
        <g transform="matrix(4.16667,0,0,4.16667,66.3881,184.716)">
            <path d="M0,0.029C0,4.399 1.005,6.731 2.864,6.731C4.723,6.731 5.728,4.399 5.728,0.029C5.728,-4.634 4.488,-6.762 2.864,-6.762C1.24,-6.762 0,-4.634 0,0.029M2.864,-11.19C8.621,-11.19 11.042,-6.791 11.042,-0C11.042,6.849 8.975,11.219 2.864,11.219C-3.246,11.219 -5.314,6.849 -5.314,-0C-5.314,-6.791 -2.893,-11.19 2.864,-11.19" style="fill:rgb(89,180,116);fill-rule:nonzero;"/>
        </g>
        <g transform="matrix(4.16667,0,0,4.16667,168.246,505.217)">
            <path d="M0,0.037C0,5.742 1.312,8.785 3.739,8.785C6.166,8.785 7.477,5.742 7.477,0.037C7.477,-6.05 5.858,-8.827 3.739,-8.827C1.619,-8.827 0,-6.05 0,0.037M3.739,-14.607C11.254,-14.607 14.414,-8.865 14.414,-0.001C14.414,8.939 11.715,14.644 3.739,14.644C-4.238,14.644 -6.936,8.939 -6.936,-0.001C-6.936,-8.865 -3.776,-14.607 3.739,-14.607" style="fill:rgb(89,180,116);fill-rule:nonzero;"/>
        </g>
    </g>
</svg>